<svg xmlns="http://www.w3.org/2000/svg" version="1.1" xmlns:xlink="http://www.w3.org/1999/xlink" xmlns:svgjs="http://svgjs.dev/svgjs" width="1500" height="1500" viewBox="0 0 1500 1500"><rect width="1500" height="1500" fill="#000000"></rect><g transform="matrix(0.6666666666666666,0,0,0.6666666666666666,249.6961606347524,242.36774193548388)"><svg viewBox="0 0 245 248" data-background-color="#000000" preserveAspectRatio="xMidYMid meet" height="1518" width="1500" xmlns="http://www.w3.org/2000/svg" xmlns:xlink="http://www.w3.org/1999/xlink"><g id="tight-bounds" transform="matrix(1,0,0,1,0.07444064448566223,0.4000000000000057)"><svg viewBox="0 0 244.85111871102868 247.2" height="247.2" width="244.85111871102868"><g><svg viewBox="0 0 397.4975999999999 401.31083426238007" height="247.2" width="244.85111871102868"><g><rect width="397.4975999999999" height="6.834737378325163" x="0" y="225.9996761189919" fill="#fefeff" opacity="1" stroke-width="0" stroke="transparent" fill-opacity="1" class="rect-yte-0" data-fill-palette-color="primary" rx="1%" id="yte-0" data-palette-color="#fefeff"></rect></g><g transform="matrix(1,0,0,1,0.9887999999999693,250.72639616308976)"><svg viewBox="0 0 395.52 150.5844380992903" height="150.5844380992903" width="395.52"><g id="textblocktransform"><svg viewBox="0 0 395.52 150.5844380992903" height="150.5844380992903" width="395.52" id="textblock"><g><svg viewBox="0 0 395.52 75.78907921928818" height="75.78907921928818" width="395.52"><g transform="matrix(1,0,0,1,0,0)"><svg width="395.52" viewBox="2.6 -33.13 217.73000000000002 41.730000000000004" height="75.78907921928818" data-palette-color="#fefeff"><path d="M14.95 0.6L14.95 0.6Q8.9 0.6 5.75-2.74 2.6-6.08 2.6-12.3L2.6-12.3 2.6-19.68Q2.6-25.88 5.75-29.21 8.9-32.55 14.95-32.55L14.95-32.55Q21-32.55 24.15-29.21 27.3-25.88 27.3-19.68L27.3-19.68 27.3-12.3Q27.3-6.08 24.15-2.74 21 0.6 14.95 0.6ZM14.95-2.88L14.95-2.88Q19-2.88 21.05-5.29 23.1-7.7 23.1-12.13L23.1-12.13 23.1-19.85Q23.1-24.28 21.05-26.68 19-29.08 14.95-29.08L14.95-29.08Q10.93-29.08 8.88-26.68 6.83-24.28 6.83-19.85L6.83-19.85 6.83-12.13Q6.83-7.7 8.88-5.29 10.93-2.88 14.95-2.88ZM45.25 0.53L45.25 0.53Q43 0.53 41.35-0.23 39.7-0.98 38.67-2.38 37.65-3.78 37.3-5.63L37.3-5.63 35.97-5.63 37.15-9.43Q37.25-7.23 38.13-5.76 39.02-4.3 40.55-3.58 42.07-2.85 44-2.85L44-2.85Q47.07-2.85 48.71-4.65 50.35-6.45 50.35-9.93L50.35-9.93 50.35-14.6Q50.35-18.05 48.72-19.85 47.1-21.65 44-21.65L44-21.65Q42.15-21.65 40.72-20.93 39.3-20.2 38.36-18.95 37.42-17.7 37.07-16.1L37.07-16.1 36.07-18.93 37.25-18.93Q37.65-20.6 38.61-21.96 39.57-23.33 41.26-24.14 42.95-24.95 45.42-24.95L45.42-24.95Q49.82-24.95 52.12-22.21 54.42-19.48 54.42-14.28L54.42-14.28 54.42-10.23Q54.42-4.98 52.11-2.23 49.8 0.53 45.25 0.53ZM37.25 0.68L37.25 8.6 33.22 8.6 33.22-24.4 37.27-24.4 37.1-18.53 37.15-17.28 37.15-7 37.12-6.18 37.25 0.68ZM70.32 0.55L70.32 0.55Q64.75 0.55 61.92-2.18 59.1-4.9 59.1-9.98L59.1-9.98 59.1-14.33Q59.1-19.48 61.72-22.26 64.34-25.05 69.4-25.05L69.4-25.05Q72.8-25.05 75.07-23.79 77.34-22.53 78.5-20.2 79.65-17.88 79.65-14.65L79.65-14.65 79.65-13.75Q79.65-12.95 79.58-12.15 79.52-11.35 79.42-10.58L79.42-10.58 75.7-10.58Q75.75-11.78 75.76-12.85 75.77-13.93 75.77-14.83L75.77-14.83Q75.77-17.05 75.06-18.59 74.34-20.13 72.93-20.94 71.52-21.75 69.4-21.75L69.4-21.75Q66.25-21.75 64.67-19.93 63.1-18.1 63.1-14.7L63.1-14.7 63.1-12.38 63.12-11.88 63.12-9.55Q63.12-8.03 63.57-6.8 64.02-5.58 64.98-4.69 65.95-3.8 67.43-3.34 68.92-2.88 70.97-2.88L70.97-2.88Q73.34-2.88 75.4-3.5 77.45-4.13 79.25-5.2L79.25-5.2 78.87-1.7Q77.25-0.68 75.09-0.06 72.95 0.55 70.32 0.55ZM78.57-13.63L78.57-10.58 61.22-10.58 61.22-13.63 78.57-13.63ZM94.44 0.55L94.44 0.55Q89.19 0.55 86.63-2.29 84.07-5.13 84.07-10.33L84.07-10.33 84.07-14.13Q84.07-19.35 86.64-22.16 89.22-24.98 94.44-24.98L94.44-24.98Q95.99-24.98 97.27-24.69 98.54-24.4 99.56-23.94 100.57-23.48 101.27-22.98L101.27-22.98 101.62-19.45Q100.44-20.35 98.83-20.98 97.22-21.6 95.04-21.6L95.04-21.6Q91.54-21.6 89.83-19.66 88.12-17.73 88.12-14.03L88.12-14.03 88.12-10.43Q88.12-6.8 89.83-4.85 91.54-2.9 95.04-2.9L95.04-2.9Q97.29-2.9 98.93-3.53 100.57-4.15 101.84-5.05L101.84-5.05 101.47-1.48Q100.37-0.73 98.59-0.09 96.82 0.55 94.44 0.55ZM117.89 0.58L117.89 0.58Q111.97 0.58 109-2.75 106.04-6.08 106.04-12.2L106.04-12.2 106.04-19.78Q106.04-25.9 108.99-29.21 111.94-32.52 117.84-32.52L117.84-32.52Q119.74-32.52 121.3-32.18 122.87-31.83 124.09-31.28 125.32-30.73 126.17-30.13L126.17-30.13 126.52-26.28Q125.04-27.33 123.05-28.11 121.07-28.9 118.39-28.9L118.39-28.9Q114.37-28.9 112.32-26.51 110.27-24.13 110.27-19.73L110.27-19.73 110.27-12.35Q110.27-7.98 112.34-5.56 114.42-3.15 118.54-3.15L118.54-3.15Q121.19-3.15 123.23-3.93 125.27-4.7 126.77-5.83L126.77-5.83 126.42-1.88Q125.57-1.28 124.32-0.7 123.07-0.13 121.45 0.23 119.84 0.58 117.89 0.58ZM152.49-15.63L152.49 0 148.44 0 148.44-15.18Q148.44-17.15 147.9-18.57 147.36-20 146.15-20.79 144.94-21.58 142.84-21.58L142.84-21.58Q140.91-21.58 139.51-20.85 138.11-20.13 137.25-18.89 136.39-17.65 136.04-16.07L136.04-16.07 135.14-18.95 136.19-18.95Q136.56-20.6 137.56-21.96 138.56-23.33 140.25-24.14 141.94-24.95 144.36-24.95L144.36-24.95Q147.26-24.95 149.05-23.85 150.84-22.75 151.66-20.69 152.49-18.63 152.49-15.63L152.49-15.63ZM136.16-17.85L136.16 0 132.11 0 132.11-33.13 136.14-33.13 136.14-25.18 136.01-18.18 136.16-17.85ZM177.26-15.8L177.26 0 173.24 0 173.41-5.93 173.26-6.55 173.26-14.33 173.28-15.75Q173.28-18.73 171.77-20.15 170.26-21.58 166.99-21.58L166.99-21.58Q164.36-21.58 162.17-20.83 159.99-20.08 158.28-19.07L158.28-19.07 158.66-22.53Q159.61-23.1 160.92-23.66 162.24-24.23 163.92-24.6 165.61-24.98 167.64-24.98L167.64-24.98Q170.26-24.98 172.1-24.34 173.94-23.7 175.07-22.5 176.21-21.3 176.74-19.6 177.26-17.9 177.26-15.8L177.26-15.8ZM164.84 0.53L164.84 0.53Q161.21 0.53 159.27-1.24 157.34-3 157.34-6.28L157.34-6.28 157.34-7Q157.34-10.38 159.42-12.04 161.51-13.7 166.06-14.35L166.06-14.35 173.78-15.45 174.01-12.5 166.56-11.43Q163.76-11.03 162.56-10.06 161.36-9.1 161.36-7.23L161.36-7.23 161.36-6.83Q161.36-4.9 162.55-3.88 163.74-2.85 166.11-2.85L166.11-2.85Q168.21-2.85 169.71-3.58 171.21-4.3 172.14-5.53 173.06-6.75 173.39-8.25L173.39-8.25 174.01-5.5 173.24-5.5Q172.89-3.9 171.92-2.53 170.96-1.15 169.24-0.31 167.51 0.53 164.84 0.53ZM192.33 0.5L192.33 0.5Q189.51 0.5 187.78-0.35 186.06-1.2 185.28-2.93 184.51-4.65 184.51-7.23L184.51-7.23 184.51-22.63 188.51-22.63 188.51-7.7Q188.51-5.3 189.61-4.16 190.71-3.03 193.31-3.03L193.31-3.03Q194.78-3.03 196.15-3.35 197.51-3.68 198.71-4.28L198.71-4.28 198.33-0.8Q197.16-0.2 195.58 0.15 194.01 0.5 192.33 0.5ZM198.46-24.05L198.08-20.8 180.51-20.8 180.51-24.05 198.46-24.05ZM188.58-31.03L188.41-23.65 184.53-23.65 184.51-30.5 188.58-31.03ZM210.86 0.55L210.86 0.55Q207.91 0.55 205.71-0.09 203.51-0.73 202.06-1.48L202.06-1.48 201.68-5.23Q203.51-4.28 205.69-3.58 207.88-2.88 210.66-2.88L210.66-2.88Q213.48-2.88 214.91-3.78 216.33-4.67 216.33-6.45L216.33-6.45 216.33-6.73Q216.33-7.88 215.79-8.63 215.26-9.38 213.86-9.95 212.46-10.53 209.88-11.1L209.88-11.1Q206.81-11.78 205.03-12.69 203.26-13.6 202.49-14.95 201.73-16.3 201.73-18.25L201.73-18.25 201.73-18.48Q201.73-21.68 203.96-23.33 206.18-24.98 210.66-24.98L210.66-24.98Q213.53-24.98 215.64-24.33 217.76-23.68 219.11-22.88L219.11-22.88 219.48-19.45Q217.86-20.4 215.76-21.03 213.66-21.65 211.03-21.65L211.03-21.65Q209.13-21.65 207.96-21.26 206.78-20.88 206.26-20.16 205.73-19.45 205.73-18.45L205.73-18.45 205.73-18.25Q205.73-17.15 206.26-16.39 206.78-15.63 208.14-15.06 209.51-14.5 211.93-13.98L211.93-13.98Q215.06-13.35 216.89-12.48 218.73-11.6 219.53-10.26 220.33-8.93 220.33-6.83L220.33-6.83 220.33-6.4Q220.33-2.95 217.93-1.2 215.53 0.55 210.86 0.55Z" opacity="1" transform="matrix(1,0,0,1,0,0)" fill="#fefeff" class="wordmark-text-0" data-fill-palette-color="primary" id="text-0"></path></svg></g></svg></g><g transform="matrix(1,0,0,1,0,93.68106188506086)"><svg viewBox="0 0 395.52 56.90337621422946" height="56.90337621422946" width="395.52"><g transform="matrix(1,0,0,1,0,0)"><svg width="395.52" viewBox="3.78 -32.5 285.64000000000004 41.099999999999994" height="56.90337621422946" data-palette-color="#ffffff"><path d="M27.33 0L22.43 0 11.23-14.68 7.58-14.68 7.58-17.98 11.23-17.98 22.28-31.95 27-31.95 14.35-16.03 14.33-17.05 27.33 0ZM7.9 0L3.78 0 3.78-31.95 7.9-31.95 7.9 0ZM41.87 0.55L41.87 0.55Q36.3 0.55 33.47-2.18 30.65-4.9 30.65-9.98L30.65-9.98 30.65-14.33Q30.65-19.48 33.27-22.26 35.9-25.05 40.95-25.05L40.95-25.05Q44.35-25.05 46.62-23.79 48.9-22.53 50.05-20.2 51.2-17.88 51.2-14.65L51.2-14.65 51.2-13.75Q51.2-12.95 51.14-12.15 51.07-11.35 50.97-10.58L50.97-10.58 47.25-10.58Q47.3-11.78 47.31-12.85 47.32-13.93 47.32-14.83L47.32-14.83Q47.32-17.05 46.61-18.59 45.9-20.13 44.48-20.94 43.07-21.75 40.95-21.75L40.95-21.75Q37.8-21.75 36.22-19.93 34.65-18.1 34.65-14.7L34.65-14.7 34.65-12.38 34.67-11.88 34.67-9.55Q34.67-8.03 35.12-6.8 35.57-5.58 36.54-4.69 37.5-3.8 38.98-3.34 40.47-2.88 42.52-2.88L42.52-2.88Q44.9-2.88 46.95-3.5 49-4.13 50.8-5.2L50.8-5.2 50.42-1.7Q48.8-0.68 46.65-0.06 44.5 0.55 41.87 0.55ZM50.12-10.58L32.77-10.58 32.77-13.63 50.12-13.63 50.12-10.58ZM66.84 0.55L66.84 0.55Q61.27 0.55 58.45-2.18 55.62-4.9 55.62-9.98L55.62-9.98 55.62-14.33Q55.62-19.48 58.25-22.26 60.87-25.05 65.92-25.05L65.92-25.05Q69.32-25.05 71.59-23.79 73.87-22.53 75.02-20.2 76.17-17.88 76.17-14.65L76.17-14.65 76.17-13.75Q76.17-12.95 76.11-12.15 76.05-11.35 75.95-10.58L75.95-10.58 72.22-10.58Q72.27-11.78 72.28-12.85 72.3-13.93 72.3-14.83L72.3-14.83Q72.3-17.05 71.58-18.59 70.87-20.13 69.46-20.94 68.05-21.75 65.92-21.75L65.92-21.75Q62.77-21.75 61.2-19.93 59.62-18.1 59.62-14.7L59.62-14.7 59.62-12.38 59.65-11.88 59.65-9.55Q59.65-8.03 60.09-6.8 60.55-5.58 61.51-4.69 62.47-3.8 63.96-3.34 65.45-2.88 67.5-2.88L67.5-2.88Q69.87-2.88 71.92-3.5 73.97-4.13 75.77-5.2L75.77-5.2 75.4-1.7Q73.77-0.68 71.62-0.06 69.47 0.55 66.84 0.55ZM75.09-10.58L57.75-10.58 57.75-13.63 75.09-13.63 75.09-10.58ZM93.59 0.53L93.59 0.53Q91.34 0.53 89.69-0.23 88.04-0.98 87.02-2.38 85.99-3.78 85.64-5.63L85.64-5.63 84.32-5.63 85.49-9.43Q85.59-7.23 86.48-5.76 87.37-4.3 88.89-3.58 90.42-2.85 92.34-2.85L92.34-2.85Q95.42-2.85 97.06-4.65 98.69-6.45 98.69-9.93L98.69-9.93 98.69-14.6Q98.69-18.05 97.07-19.85 95.44-21.65 92.34-21.65L92.34-21.65Q90.49-21.65 89.07-20.93 87.64-20.2 86.71-18.95 85.77-17.7 85.42-16.1L85.42-16.1 84.42-18.93 85.59-18.93Q85.99-20.6 86.96-21.96 87.92-23.33 89.61-24.14 91.29-24.95 93.77-24.95L93.77-24.95Q98.17-24.95 100.47-22.21 102.77-19.48 102.77-14.28L102.77-14.28 102.77-10.23Q102.77-4.98 100.46-2.23 98.14 0.53 93.59 0.53ZM85.59 8.6L81.57 8.6 81.57-24.4 85.62-24.4 85.44-18.53 85.49-17.28 85.49-7 85.47-6.18 85.59 0.68 85.59 8.6ZM122.01-31.95L122.01 0 117.86 0 117.86-31.95 122.01-31.95ZM138.01 0.5L138.01 0.5Q135.19 0.5 133.46-0.35 131.74-1.2 130.96-2.93 130.19-4.65 130.19-7.23L130.19-7.23 130.19-22.63 134.19-22.63 134.19-7.7Q134.19-5.3 135.28-4.16 136.39-3.03 138.99-3.03L138.99-3.03Q140.46-3.03 141.82-3.35 143.19-3.68 144.39-4.28L144.39-4.28 144.01-0.8Q142.84-0.2 141.26 0.15 139.69 0.5 138.01 0.5ZM143.76-20.8L126.19-20.8 126.19-24.05 144.14-24.05 143.76-20.8ZM134.09-23.65L130.21-23.65 130.19-30.5 134.26-31.03 134.09-23.65ZM167.21 0.58L167.21 0.58Q164.91 0.58 162.99 0.2 161.08-0.18 159.58-0.73 158.08-1.28 157.08-1.83L157.08-1.83 156.66-5.95Q158.58-4.8 161.19-3.94 163.81-3.08 166.88-3.08L166.88-3.08Q170.58-3.08 172.36-4.39 174.13-5.7 174.13-8.33L174.13-8.33 174.13-8.72Q174.13-10.45 173.43-11.55 172.73-12.65 171.07-13.4 169.41-14.15 166.56-14.8L166.56-14.8Q162.96-15.65 160.79-16.81 158.63-17.98 157.67-19.73 156.71-21.48 156.71-24.08L156.71-24.08 156.71-24.3Q156.71-28.23 159.28-30.36 161.86-32.5 167.08-32.5L167.08-32.5Q170.51-32.5 172.92-31.8 175.33-31.1 176.86-30.25L176.86-30.25 177.23-26.45Q175.46-27.5 173.09-28.24 170.73-28.98 167.68-28.98L167.68-28.98Q165.26-28.98 163.76-28.4 162.26-27.83 161.58-26.75 160.91-25.68 160.91-24.15L160.91-24.15 160.91-24.05Q160.91-22.5 161.57-21.4 162.23-20.3 163.89-19.5 165.56-18.7 168.63-17.95L168.63-17.95Q172.16-17.13 174.28-16.05 176.41-14.98 177.37-13.25 178.33-11.53 178.33-8.75L178.33-8.75 178.33-8.22Q178.33-3.9 175.54-1.66 172.76 0.58 167.21 0.58ZM194.13 0.55L194.13 0.55Q188.55 0.55 185.73-2.18 182.9-4.9 182.9-9.98L182.9-9.98 182.9-14.33Q182.9-19.48 185.53-22.26 188.15-25.05 193.2-25.05L193.2-25.05Q196.6-25.05 198.88-23.79 201.15-22.53 202.3-20.2 203.45-17.88 203.45-14.65L203.45-14.65 203.45-13.75Q203.45-12.95 203.39-12.15 203.33-11.35 203.23-10.58L203.23-10.58 199.5-10.58Q199.55-11.78 199.57-12.85 199.58-13.93 199.58-14.83L199.58-14.83Q199.58-17.05 198.87-18.59 198.15-20.13 196.74-20.94 195.33-21.75 193.2-21.75L193.2-21.75Q190.05-21.75 188.48-19.93 186.9-18.1 186.9-14.7L186.9-14.7 186.9-12.38 186.93-11.88 186.93-9.55Q186.93-8.03 187.38-6.8 187.83-5.58 188.79-4.69 189.75-3.8 191.24-3.34 192.73-2.88 194.78-2.88L194.78-2.88Q197.15-2.88 199.2-3.5 201.25-4.13 203.05-5.2L203.05-5.2 202.68-1.7Q201.05-0.68 198.9-0.06 196.75 0.55 194.13 0.55ZM202.38-10.58L185.03-10.58 185.03-13.63 202.38-13.63 202.38-10.58ZM218.25 0.55L218.25 0.55Q213 0.55 210.44-2.29 207.88-5.13 207.88-10.33L207.88-10.33 207.88-14.13Q207.88-19.35 210.45-22.16 213.03-24.98 218.25-24.98L218.25-24.98Q219.8-24.98 221.08-24.69 222.35-24.4 223.36-23.94 224.38-23.48 225.08-22.98L225.08-22.98 225.43-19.45Q224.25-20.35 222.64-20.98 221.03-21.6 218.85-21.6L218.85-21.6Q215.35-21.6 213.64-19.66 211.93-17.73 211.93-14.03L211.93-14.03 211.93-10.43Q211.93-6.8 213.64-4.85 215.35-2.9 218.85-2.9L218.85-2.9Q221.1-2.9 222.74-3.53 224.38-4.15 225.65-5.05L225.65-5.05 225.28-1.48Q224.18-0.73 222.4-0.09 220.63 0.55 218.25 0.55ZM234.4-14.93L234.4-14.93 233.47-18.05 234.47-18.1Q235.27-21.2 237.22-22.99 239.17-24.78 242.4-24.78L242.4-24.78Q243.2-24.78 243.84-24.65 244.47-24.53 244.97-24.35L244.97-24.35 245.22-20.43Q244.6-20.63 243.84-20.75 243.07-20.88 242.15-20.88L242.15-20.88Q239.4-20.88 237.36-19.35 235.32-17.82 234.4-14.93ZM234.6 0L230.55 0 230.55-24.4 234.5-24.4 234.3-17.2 234.6-16.9 234.6 0ZM259.45 0.55L259.45 0.55Q253.87 0.55 251.05-2.18 248.22-4.9 248.22-9.98L248.22-9.98 248.22-14.33Q248.22-19.48 250.85-22.26 253.47-25.05 258.52-25.05L258.52-25.05Q261.92-25.05 264.2-23.79 266.47-22.53 267.62-20.2 268.77-17.88 268.77-14.65L268.77-14.65 268.77-13.75Q268.77-12.95 268.71-12.15 268.65-11.35 268.55-10.58L268.55-10.58 264.82-10.58Q264.87-11.78 264.88-12.85 264.9-13.93 264.9-14.83L264.9-14.83Q264.9-17.05 264.18-18.59 263.47-20.13 262.06-20.94 260.65-21.75 258.52-21.75L258.52-21.75Q255.37-21.75 253.8-19.93 252.22-18.1 252.22-14.7L252.22-14.7 252.22-12.38 252.25-11.88 252.25-9.55Q252.25-8.03 252.7-6.8 253.15-5.58 254.11-4.69 255.07-3.8 256.56-3.34 258.05-2.88 260.1-2.88L260.1-2.88Q262.47-2.88 264.52-3.5 266.57-4.13 268.37-5.2L268.37-5.2 268-1.7Q266.37-0.68 264.22-0.06 262.07 0.55 259.45 0.55ZM267.7-10.58L250.35-10.58 250.35-13.63 267.7-13.63 267.7-10.58ZM283.04 0.5L283.04 0.5Q280.22 0.5 278.49-0.35 276.77-1.2 275.99-2.93 275.22-4.65 275.22-7.23L275.22-7.23 275.22-22.63 279.22-22.63 279.22-7.7Q279.22-5.3 280.32-4.16 281.42-3.03 284.02-3.03L284.02-3.03Q285.49-3.03 286.86-3.35 288.22-3.68 289.42-4.28L289.42-4.28 289.04-0.8Q287.87-0.2 286.29 0.15 284.72 0.5 283.04 0.5ZM288.79-20.8L271.22-20.8 271.22-24.05 289.17-24.05 288.79-20.8ZM279.12-23.65L275.24-23.65 275.22-30.5 279.29-31.03 279.12-23.65Z" opacity="1" transform="matrix(1,0,0,1,0,0)" fill="#ffffff" class="slogan-text-1" data-fill-palette-color="secondary" id="text-1"></path></svg></g></svg></g></svg></g></svg></g><g transform="matrix(1,0,0,1,77.16943262438697,0)"><svg viewBox="0 0 243.15873475122598 208.10769345321924" height="208.10769345321924" width="243.15873475122598"><g><svg xmlns="http://www.w3.org/2000/svg" xmlns:xlink="http://www.w3.org/1999/xlink" version="1.1" x="0" y="0" viewBox="0.499741564244382 0.1810153498885991 111.00058669431013 94.9999846501114" enable-background="new 0 0 111 95" xml:space="preserve" id="icon-0" width="243.15873475122598" height="208.10769345321924" class="icon-icon-0" data-fill-palette-color="accent"><g fill="#ffffff" data-fill-palette-color="accent"><g fill="#ffffff" data-fill-palette-color="accent"><path fill="#ffffff" d="M104.343 59.979H104.334C109.019 53.822 111.647 46.629 111.494 38.99 111.063 17.007 87.805-0.362 59.553 0.194S8.751 19.021 9.183 40.999C9.191 41.402 9.206 41.803 9.231 42.203L10.613 41.314C10.607 41.192 18.071 37.345 18.071 37.223 18.071 21.237 41.255 5.869 59.549 5.869 76.042 5.869 104.28 15.33 104.28 39.067 104.279 46.24 100.16 53.429 95.706 59.208 91.978 64.985 96.427 77.998 96.427 77.998L81.793 70.208C77.966 71.4 72.043 71.958 70.418 72.417 68.459 77 65.417 79.572 65.417 79.572 70.569 79.212 74.545 78.335 79.148 76.882L105.073 88.025C105.072 88.024 96.293 70.293 104.343 59.979M35.457 36.076C16.445 35.702 0.795 47.391 0.504 62.185 0.401 67.325 2.171 72.165 5.321 76.308H5.316C10.732 83.248 4.825 95.181 4.825 95.181L22.271 87.683C26.031 88.87 30.117 89.559 34.398 89.644 53.41 90.018 69.06 78.33 69.352 63.536 69.644 48.745 54.469 36.45 35.457 36.076" data-fill-palette-color="accent"></path></g></g></svg></g></svg></g><g></g></svg></g><defs></defs></svg><rect width="244.85111871102868" height="247.2" fill="none" stroke="none" visibility="hidden"></rect></g></svg></g></svg>